<svg xmlns="http://www.w3.org/2000/svg" viewBox="0 0 720 1320" role="img" aria-labelledby="t d"><title id="t">Mixed-infrastructure technical triage mobile</title><desc id="d">Windows and Linux evidence triage workflow.</desc><defs><style>.b{fill:#07100d}.p{fill:#0a1511;stroke:#294238;stroke-width:2}.a{fill:#10291e;stroke:#72d69b;stroke-width:2}.r{stroke:#294238;stroke-width:2}.w{fill:#edf5f1}.g{fill:#72d69b}.m{fill:#8fa99e}.l{font:500 17px ui-monospace,monospace;letter-spacing:1.5px}.h{font:600 25px Arial,sans-serif}.c{font:400 18px Arial,sans-serif}.s{font:500 14px ui-monospace,monospace}</style></defs><rect class="b" width="720" height="1320"/><text x="42" y="58" class="l g">IR-004 / WINDOWS + LINUX</text><text x="42" y="102" class="h w">Evidence-led triage</text><line x1="42" y1="132" x2="678" y2="132" class="r"/>
<g transform="translate(42 170)"><rect class="p" width="636" height="154"/><text x="24" y="38" class="l g">01 / ACQUIRE</text><text x="24" y="80" class="h w">COLLECT HOST EVIDENCE</text><text x="24" y="119" class="c m">Logs, processes, services and network state</text></g><text x="360" y="357" text-anchor="middle" class="h g">↓</text>
<g transform="translate(42 385)"><rect class="a" width="636" height="154"/><text x="24" y="38" class="l g">02 / TRIAGE</text><text x="24" y="80" class="h w">PRIORITIZE SIGNAL</text><text x="24" y="119" class="c m">Artifacts, identity and initial scope</text></g><text x="360" y="572" text-anchor="middle" class="h g">↓</text>
<g transform="translate(42 600)"><rect class="p" width="636" height="154"/><text x="24" y="38" class="l g">03 / CORRELATE</text><text x="24" y="80" class="h w">RECONSTRUCT TIMELINE</text><text x="24" y="119" class="c m">Cross-host sequence and causality</text></g><text x="360" y="787" text-anchor="middle" class="h g">↓</text>
<g transform="translate(42 815)"><rect class="p" width="636" height="154"/><text x="24" y="38" class="l g">04 / CONTAIN</text><text x="24" y="80" class="h w">ACT ON EVIDENCE</text><text x="24" y="119" class="c m">Bounded response to limit impact</text></g><text x="360" y="1002" text-anchor="middle" class="h g">↓</text>
<g transform="translate(42 1030)"><rect class="p" width="636" height="154"/><text x="24" y="38" class="l g">05 / REPORT</text><text x="24" y="80" class="h w">DOCUMENT FINDINGS</text><text x="24" y="119" class="c m">Windows + Linux evidence and actions</text></g><text x="42" y="1248" class="l g">EVIDENCE SOURCES</text><text x="42" y="1283" class="s m">WINDOWS EVENT LOGS · LINUX JOURNAL · HOST STATE</text></svg>
